<svg version="1.1" xmlns="http://www.w3.org/2000/svg" xmlns:xlink="http://www.w3.org/1999/xlink" width="292.37126" height="56.11014" viewBox="0,0,292.37126,56.11014"><g transform="translate(-93.81437,-151.94493)"><g data-paper-data="{&quot;isPaintingLayer&quot;:true}" fill="#000000" fill-rule="nonzero" stroke="none" stroke-width="1" stroke-linecap="butt" stroke-linejoin="miter" stroke-miterlimit="10" stroke-dasharray="" stroke-dashoffset="0" style="mix-blend-mode: normal"><path d="M108.10376,206.93287h-11.5961c-0.94764,0 -1.63343,-0.21197 -2.05737,-0.63591c-0.42394,-0.42394 -0.63591,-1.10973 -0.63591,-2.05737v-48.47916c0,-0.94764 0.21197,-1.63343 0.63591,-2.05737c0.42394,-0.42394 1.10973,-0.63591 2.05737,-0.63591h33.36683c0.94764,0 1.63343,0.21197 2.05737,0.63591c0.42394,0.42394 0.63591,1.10973 0.63591,2.05737v8.90281c0,0.94764 -0.21197,1.63343 -0.63591,2.05737c-0.42394,0.42394 -1.10973,0.63591 -2.05737,0.63591h-19.07745v7.78061h13.01755c0.94764,0 1.63343,0.21197 2.05737,0.63591c0.42394,0.42394 0.63591,1.10973 0.63591,2.05737v8.97762c0,0.94764 -0.21197,1.63343 -0.63591,2.05737c-0.42394,0.42394 -1.10973,0.63591 -2.05737,0.63591h-13.01755v14.73826c0,0.94764 -0.21197,1.63343 -0.63591,2.05737c-0.42394,0.42394 -1.10973,0.63591 -2.05737,0.63591zM159.57546,168.77797l-3.51624,11.37166h11.74572l-3.51624,-11.37166c-0.1995,-0.44888 -0.41147,-0.77307 -0.63591,-0.97258c-0.22444,-0.1995 -0.48629,-0.29925 -0.78554,-0.29925h-1.87034c-0.29925,0 -0.5611,0.09975 -0.78554,0.29925c-0.22444,0.1995 -0.43641,0.52369 -0.63591,0.97258zM155.31109,193.76569v10.47389c0,0.94764 -0.21197,1.63343 -0.63591,2.05737c-0.42394,0.42394 -1.10973,0.63591 -2.05737,0.63591h-10.99759c-0.94764,0 -1.63343,-0.21197 -2.05737,-0.63591c-0.42394,-0.42394 -0.63591,-1.10973 -0.63591,-2.05737v-19.75077c0,-1.49627 0.23691,-3.21698 0.71073,-5.16213c0.47382,-1.94515 1.20949,-4.2145 2.207,-6.80803l6.50878,-16.98267c0.29925,-0.84789 0.7606,-1.47133 1.38405,-1.87034c0.62345,-0.39901 1.43393,-0.59851 2.43144,-0.59851h20.12484c0.94764,0 1.73318,0.1995 2.35663,0.59851c0.62345,0.39901 1.0848,1.02245 1.38405,1.87034l6.50878,16.98267c0.99751,2.59354 1.73318,4.86288 2.207,6.80803c0.47382,1.94515 0.71073,3.66586 0.71073,5.16213v19.75077c0,0.94764 -0.21197,1.63343 -0.63591,2.05737c-0.42394,0.42394 -1.10973,0.63591 -2.05737,0.63591h-11.29684c-0.99751,0 -1.73318,-0.21197 -2.207,-0.63591c-0.47382,-0.42394 -0.71073,-1.10973 -0.71073,-2.05737v-10.47389zM230.49868,206.93287h-18.2545c-6.23446,0 -10.86043,-1.24689 -13.87791,-3.74068c-3.01748,-2.49378 -4.52622,-6.33421 -4.52622,-11.52128v-23.26701c0,-5.18707 1.50874,-9.03997 4.52622,-11.55869c3.01748,-2.51872 7.64345,-3.77808 13.87791,-3.77808h18.2545c0.94764,0 1.63343,0.21197 2.05737,0.63591c0.42394,0.42394 0.63591,1.10973 0.63591,2.05737v9.05244c0,0.94764 -0.21197,1.63343 -0.63591,2.05737c-0.42394,0.42394 -1.10973,0.63591 -2.05737,0.63591h-15.03752c-1.54615,0 -2.69329,0.31172 -3.44142,0.93517c-0.74814,0.62345 -1.1222,1.55862 -1.1222,2.80551v17.80562c0,1.24689 0.37407,2.15712 1.1222,2.73069c0.74814,0.57357 1.89528,0.86036 3.44142,0.86036h15.03752c0.94764,0 1.63343,0.21197 2.05737,0.63591c0.42394,0.42394 0.63591,1.10973 0.63591,2.05737v8.90281c0,0.94764 -0.21197,1.63343 -0.63591,2.05737c-0.42394,0.42394 -1.10973,0.63591 -2.05737,0.63591zM279.05266,206.93287h-34.71348c-0.94764,0 -1.63343,-0.21197 -2.05737,-0.63591c-0.42394,-0.42394 -0.63591,-1.10973 -0.63591,-2.05737v-48.47916c0,-0.94764 0.21197,-1.63343 0.63591,-2.05737c0.42394,-0.42394 1.10973,-0.63591 2.05737,-0.63591h34.71348c0.94764,0 1.63343,0.21197 2.05737,0.63591c0.42394,0.42394 0.63591,1.10973 0.63591,2.05737v8.75318c0,0.94764 -0.21197,1.63343 -0.63591,2.05737c-0.42394,0.42394 -1.10973,0.63591 -2.05737,0.63591h-20.64853v5.76064h14.58864c0.94764,0 1.63343,0.21197 2.05737,0.63591c0.42394,0.42394 0.63591,1.10973 0.63591,2.05737v8.00505c0,0.94764 -0.21197,1.63343 -0.63591,2.05737c-0.42394,0.42394 -1.10973,0.63591 -2.05737,0.63591h-14.58864v6.43396h20.64853c0.94764,0 1.63343,0.21197 2.05737,0.63591c0.42394,0.42394 0.63591,1.10973 0.63591,2.05737v8.75318c0,0.94764 -0.21197,1.63343 -0.63591,2.05737c-0.42394,0.42394 -1.10973,0.63591 -2.05737,0.63591zM336.21019,192.79311c0,2.29428 -0.33666,4.37659 -1.00998,6.24693c-0.67332,1.87034 -1.87034,3.46636 -3.59105,4.78807c-1.72071,1.32171 -4.08981,2.35663 -7.10728,3.10476c-3.01748,0.74814 -6.84544,1.1222 -11.48388,1.1222c-4.63844,0 -8.47887,-0.37407 -11.52128,-1.1222c-3.04242,-0.74814 -5.42398,-1.78306 -7.14469,-3.10476c-1.72071,-1.32171 -2.91773,-2.91773 -3.59105,-4.78807c-0.67332,-1.87034 -1.00998,-3.95265 -1.00998,-6.24693v-25.51141c0,-2.29428 0.33666,-4.37659 1.00998,-6.24693c0.67332,-1.87034 1.87034,-3.47883 3.59105,-4.82547c1.72071,-1.34664 4.10227,-2.39403 7.14469,-3.14217c3.04242,-0.74814 6.88284,-1.1222 11.52128,-1.1222c4.63844,0 8.4664,0.37407 11.48388,1.1222c3.01748,0.74814 5.38657,1.79552 7.10728,3.14217c1.72071,1.34664 2.91773,2.95513 3.59105,4.82547c0.67332,1.87034 1.00998,3.95265 1.00998,6.24693zM306.73366,190.09983c0,0.99751 0.37407,1.83293 1.1222,2.50625c0.74814,0.67332 2.46885,1.00998 5.16213,1.00998c2.69329,0 4.414,-0.33666 5.16213,-1.00998c0.74814,-0.67332 1.1222,-1.50874 1.1222,-2.50625v-20.12484c0,-0.94764 -0.37407,-1.75812 -1.1222,-2.43144c-0.74814,-0.67332 -2.46885,-1.00998 -5.16213,-1.00998c-2.69329,0 -4.414,0.33666 -5.16213,1.00998c-0.74814,0.67332 -1.1222,1.4838 -1.1222,2.43144zM370.69923,206.93287h-23.64107c-0.94764,0 -1.63343,-0.21197 -2.05737,-0.63591c-0.42394,-0.42394 -0.63591,-1.10973 -0.63591,-2.05737v-8.75318c0,-0.94764 0.21197,-1.63343 0.63591,-2.05737c0.42394,-0.42394 1.10973,-0.63591 2.05737,-0.63591h20.12484c0.64838,0 1.13467,-0.21197 1.45886,-0.63591c0.32419,-0.42394 0.48629,-0.93517 0.48629,-1.53368c0,-0.84789 -0.1621,-1.47133 -0.48629,-1.87034c-0.32419,-0.39901 -0.81048,-0.62345 -1.45886,-0.67332l-11.22203,-1.57108c-3.4913,-0.49876 -6.29681,-1.6459 -8.41652,-3.44142c-2.11972,-1.79552 -3.17957,-4.78807 -3.17957,-8.97762v-7.85542c0,-4.23943 1.37158,-7.49382 4.11474,-9.76317c2.74316,-2.26934 6.53371,-3.40402 11.37166,-3.40402h20.94779c0.94764,0 1.63343,0.21197 2.05737,0.63591c0.42394,0.42394 0.63591,1.10973 0.63591,2.05737v8.90281c0,0.94764 -0.21197,1.63343 -0.63591,2.05737c-0.42394,0.42394 -1.10973,0.63591 -2.05737,0.63591h-17.43155c-0.64838,0 -1.14714,0.21197 -1.49627,0.63591c-0.34913,0.42394 -0.52369,0.96011 -0.52369,1.60849c0,0.64838 0.17456,1.19702 0.52369,1.6459c0.34913,0.44888 0.84789,0.69826 1.49627,0.74814l11.14722,1.49627c3.4913,0.49876 6.30927,1.6459 8.45393,3.44142c2.14465,1.79552 3.21698,4.78807 3.21698,8.97762v7.85542c0,4.23943 -1.38405,7.49382 -4.15215,9.76317c-2.7681,2.26934 -6.54618,3.40402 -11.33425,3.40402z"/></g></g></svg>